<svg xmlns="http://www.w3.org/2000/svg" height="16" width="20" viewBox="0 0 640 512"><!--!Font Awesome Free 6.5.1 by @fontawesome - https://fontawesome.com License - https://fontawesome.com/license/free Copyright 2023 Fonticons, Inc.--><path d="M608 32H32C14.3 32 0 46.3 0 64v384c0 17.7 14.3 32 32 32h576c17.7 0 32-14.3 32-32V64c0-17.7-14.3-32-32-32zM176 327.9V344c0 4.4-3.6 8-8 8h-16c-4.4 0-8-3.6-8-8v-16.3c-11.3-.6-22.3-4.5-31.4-11.4-3.9-2.9-4.1-8.8-.6-12.1l11.8-11.2c2.8-2.6 6.9-2.8 10.1-.7 3.9 2.4 8.3 3.7 12.8 3.7h28.1c6.5 0 11.8-5.9 11.8-13.2 0-6-3.6-11.2-8.8-12.7l-45-13.5c-18.6-5.6-31.6-23.4-31.6-43.4 0-24.5 19.1-44.4 42.7-45.1V152c0-4.4 3.6-8 8-8h16c4.4 0 8 3.6 8 8v16.3c11.3 .6 22.3 4.5 31.4 11.4 3.9 2.9 4.1 8.8 .6 12.1l-11.8 11.2c-2.8 2.6-6.9 2.8-10.1 .7-3.9-2.4-8.3-3.7-12.8-3.7h-28.1c-6.5 0-11.8 5.9-11.8 13.2 0 6 3.6 11.2 8.8 12.7l45 13.5c18.6 5.6 31.6 23.4 31.6 43.4 0 24.5-19.1 44.4-42.7 45.1zM416 312c0 4.4-3.6 8-8 8H296c-4.4 0-8-3.6-8-8v-16c0-4.4 3.6-8 8-8h112c4.4 0 8 3.6 8 8v16zm160 0c0 4.4-3.6 8-8 8h-80c-4.4 0-8-3.6-8-8v-16c0-4.4 3.6-8 8-8h80c4.4 0 8 3.6 8 8v16zm0-96c0 4.4-3.6 8-8 8H296c-4.4 0-8-3.6-8-8v-16c0-4.4 3.6-8 8-8h272c4.4 0 8 3.6 8 8v16z"/></svg>